<?xml version="1.0" encoding="UTF-8"?>
<svg id="Layer_1" data-name="Layer 1" xmlns="http://www.w3.org/2000/svg" viewBox="0 0 361.76 375">
  <defs>
    <style>
      .cls-1 {
        fill: #e6c8b7;
      }
    </style>
  </defs>
  <rect class="cls-1" width=".75" height="375"/>
  <path class="cls-1" d="M241.02,175.5c44.27-39.32,116.67-10.34,120.54,49.09,6.29,96.31-142.43,116.83-163.59,19.17-19.13-88.28,54.68-157.8,122.71-198.74.66.15,7.13,10.23,7.54,11.27.32.8.71,1.43.03,2.22-31.24,21.59-68.36,49.7-82.01,86.61-1.65,4.46-5.23,15.18-5.23,19.51v10.88Z"/>
  <path class="cls-1" d="M62.13,171.75c45.15-33.21,109.89-5.42,116,50.63,4.39,40.22-15.18,73.25-55.23,82.65-49.97,11.73-95.64-14.21-104.71-65.64C2.82,152.16,74.53,86.31,141.22,45.07l1.01.26c1.39,3.41,5.91,7.94,7.1,10.95.32.81.7,1.42.03,2.23-38.71,26.73-84.4,62.09-87.23,113.24Z"/>
</svg>