<?xml version="1.0" encoding="UTF-8"?>
<svg id="Layer_1" xmlns="http://www.w3.org/2000/svg" version="1.1" viewBox="0 0 327.4 295.4">
  <!-- Generator: Adobe Illustrator 29.5.1, SVG Export Plug-In . SVG Version: 2.1.0 Build 141)  -->
  <defs>
    <style>
      .st0 {
        stroke-width: 3px;
      }

      .st0, .st1, .st2, .st3, .st4, .st5 {
        fill: #1f3345;
      }

      .st0, .st1, .st2, .st4, .st5 {
        stroke: #1f3345;
        stroke-miterlimit: 10;
      }

      .st1 {
        stroke-width: 5px;
      }

      .st2 {
        stroke-width: 2px;
      }

      .st4 {
        stroke-width: 7px;
      }

      .st5 {
        stroke-width: 6px;
      }
    </style>
  </defs>
  <path class="st2" d="M12,193.3c-3.4-1.5-5.8-5.1-6.1-8.8,2.8,1.8,5.5,5.6,6.1,8.8Z"/>
  <path class="st4" d="M38.4,203.8c-1.5-1.1-2.3.3-2.9,0-2.2-1.4-12.8-26.6-14-30.7-14.1-49.7-.2-105.4,34.8-142.9,3.2-3.4,10.3-8.5,12.4-11.6.6-.8-.6-2.2.8-3l.7,2.2,24-14.2c.7,0,.5,1,0,1.5-3.8,4.6-15.9,11.3-21.4,16.1-99.3,88-40.1,252.2,89.5,259.1,82.6,4.4,170.9-85.4,141.1-168.4-1.9-5.3-8.6-17.4-8.8-21.9-.1-3.9,6.3-4.7,9.3-3.4,4.4,1.8,14.3,20.9,16,25.9,1.9,5.4,3.3,13.2,3.6,18.9,4.5,70.8-46.1,132.8-111.6,153.4v-1.5c17.4-5.4,37-15.4,50.4-27.9.6-.5,2.2-1.2.9-2.1-22,14.8-45.7,27.2-72.1,32.1-23.1,4.2-44.8,2.2-67.5-2.8l9.6,3.5c20,4.6,40.6,5.6,60.8,1.7v1.5c-31.9,5.5-61.5,2.4-91.1-11.1-3.2-1.5-15-7.2-17-9.1-.8-.8-.3-1.3-.5-1.5l-3.7-2.2,3.3.7c.8.3.3,1.3.4,1.6,8.1,1.4,15.6,7.2,23.4,9.9.7.2,2.1,1.4,2-.1-4.2-1-6.8-5.8-10.2-8.1-12.8-8.7-30.3-13.6-42.5-24.9-2.3-2.1-13.6-15.9-13-18.2.9-3.3,2.4-2.1-.1-6.6h.8c2.6.6,2.7,2.7,4.5,4.5,1.3,1.4,1.3.9,2.2,1.5.8,2.1.8,4,3.7,5.2.2-3.7-1.6-3.9-3.7-5.2-.7-1.8-.8-1.7-1.5-3-1.2-2.2-5.5-9.1-7.2-10.5-.8-.7-.9-.6-1.8-.8-.2-1.2-.2-1.7-.8-3-.6-1.4-1.8-3.6-3-4.5h0s0,0,0,0ZM72.9,246.6c1-1-6.6-7.1-8.2-6.7.7,1.4,7,7.9,8.2,6.7ZM112.2,277.3v.8c.5-.2.5-.5,0-.8ZM117.6,279.8c-.2-.3-2-1.1-2-1v2.2s2.6.8,2.6.8c.4-.3-.5-1.9-.6-2h0Z"/>
  <path class="st4" d="M254,225.9c-.7.6-1.2,1.8-2.2,2.6-38.8,32.6-91.9,42.3-139.2,22.9l1.9-1.5c.2,0,.3,1.3.9,1.5,49.2,13.3,98.5,8.5,137.9-26.2l.8.8h0Z"/>
  <path class="st4" d="M254.9,225.1l-.9-.6c2.8-3.5,6.9-9.9,9.3-13.8,20.6-33.5,26.5-78.2,10.5-114.9,0-.8.9-.7,1.5-.3,1.1.7,4,8.3,4.6,10.1,14.6,42.2,1.6,85.9-25.1,119.6h0s0,0,0,0Z"/>
  <path class="st1" d="M94.7,214.1l-5.7-1.4-1,1.4,10.5,2.3c.6,4.6-10.9-.2-12-1.1-1.7-1.5.1-1.9.7-3.4-1.9.9-13.8-4-12-6l1.9-1.5c-3-2.2-6.7-1.3-9.8-3.7-1.8-1.5-2.2-3.6-3.7-5.3-1-1.1-9.8-7.1-8.6-8.2,3.5,1,7.4,3,10.4,4.9,8.1,5.2,20,13.7,27.5,19.7.9.7,2,.9,1.7,2.4h0Z"/>
  <path class="st0" d="M260.1,125.8c0,11-1.7,27.2-6.7,37.2-.5,1.1-.7,2.1-2.3,1.8,1.1-4.4,2.7-8.8,3.5-13.3,1.3-6.9,1.1-17,3.1-23.2.4-1.3.5-2.8,2.4-2.5h0Z"/>
  <path class="st5" d="M52.7,142.1c.2.2,1.7,5.1,1.9,5.8.8,3.5,0,7.4,2.2,10.7l1.4-2.7c3.7-.3,4,10.4,3.2,10.8-8.4-4.4-8.3-16.9-10.8-25.1.3-.6,1.7.1,2,.5h0Z"/>
  <path class="st5" d="M58.5,98.5c1.8-7.5,3.5-15.7,6.7-22.8.8-1.8,2.4-5.5,4.6-5.9-2.3,6.5-4.8,12.9-7.1,19.4-1,2.7-1,8.6-4.1,9.2h0,0Z"/>
  <path class="st2" d="M3.3,126.3c.6.5.4,14.1.1,16-.2,1.3.3,1.8-1.6,1.8,0-4.4-1.5-10.3-.8-14.5.2-1.3.3-3.2,2.2-3.3h0Z"/>
  <path class="st2" d="M6.1,172.2c-.4.8-2.8-3.1-2.9-3.7l-2.3-13.3.9-1.3,1.3.9,3.1,17.4h0Z"/>
  <path class="st2" d="M26.6,224.2c2.6,5.6,8.4,9.9,10.4,15.7l-9.8-10.5c-.7-1.3-3.7-5.2-.6-5.2h0Z"/>
  <path class="st3" d="M212.1,284.8c-6.4,2-11.3,3.4-18,4.5v-1.5c6-1.1,12.1-2.7,18-4.5v1.5h0Z"/>
  <path class="st5" d="M56.2,113.6l-.6,12.6c-2.1,1-2.1-6.2-2-6.9,0-1.5,0-7.2,2.6-5.6h0Z"/>
  <path class="st0" d="M259.4,108.5l.8,11.2c-1.5.2-1.2.1-1.7-.9-.8-1.9-.8-7.1-.6-9.2.1-1,.4-2.2,1.5-1.1h0Z"/>
  <path class="st1" d="M112.7,223.8c.6,2-2,2.1-3.3,2.2-2,.2-4.9.5-6.4-1.1l9.7-1.1Z"/>
  <polygon class="st0" points="245.5 171.7 245.2 174 244.1 172.8 244.1 171.7 245.5 171.7"/>
  <path class="st3" d="M117.6,279.8c0,0,1,1.8.6,2l-2.6-.8v-2.2c0,0,1.7.7,2,1h0Z"/>
  <path class="st3" d="M112.2,277.3c.5.2.5.5,0,.8v-.8Z"/>
</svg>