<?xml version="1.0" encoding="UTF-8"?>
<svg id="Layer_1" data-name="Layer 1" xmlns="http://www.w3.org/2000/svg" viewBox="0 0 313.96 288.34">
  <defs>
    <style>
      .cls-1 {
        fill: #dfc3b3;
      }

      .cls-2 {
        fill: #c2ada2;
      }

      .cls-3 {
        fill: #d5bbad;
      }

      .cls-4 {
        fill: #d2b9ab;
      }

      .cls-5 {
        fill: #d3baac;
      }

      .cls-6 {
        fill: #e6c8b7;
      }
    </style>
  </defs>
  <path class="cls-2" d="M4.51,154.51c-3.13-2.1-4.78-6.04-4.48-9.75,2.45,2.26,4.46,6.46,4.48,9.75Z"/>
  <path class="cls-1" d="M28.47,200.26c-1.55-1.15-2.3.32-2.89-.05-2.22-1.39-12.78-26.6-13.95-30.7-14.11-49.71-.17-105.42,34.78-142.89,3.18-3.4,10.26-8.48,12.37-11.65.55-.82-.64-2.22.75-2.96l.74,2.24L84.23,0c.74.06.46.98.02,1.52-3.76,4.62-15.94,11.3-21.36,16.1-99.35,87.99-40.08,252.18,89.46,259.13,82.64,4.43,170.89-85.38,141.1-168.38-1.89-5.28-8.59-17.4-8.76-21.89-.15-3.93,6.28-4.65,9.3-3.41,4.4,1.81,14.33,20.91,16.05,25.91,1.87,5.41,3.27,13.15,3.63,18.86,4.49,70.78-46.06,132.8-111.56,153.41v-1.5c17.45-5.37,37-15.41,50.39-27.89.57-.53,2.22-1.17.88-2.12-21.97,14.82-45.67,27.25-72.05,32.05-23.12,4.21-44.75,2.16-67.53-2.79l9.57,3.52c20.03,4.56,40.58,5.58,60.78,1.72v1.5c-31.9,5.52-61.49,2.36-91.07-11.12-3.21-1.46-14.97-7.18-16.98-9.08-.83-.78-.34-1.27-.48-1.55l-3.74-2.24,3.3.67c.81.29.29,1.27.44,1.57,8.13,1.42,15.61,7.25,23.43,9.9.68.23,2.13,1.38,2.01-.14-4.16-.98-6.78-5.77-10.22-8.14-12.75-8.74-30.31-13.65-42.53-24.88-2.27-2.08-13.58-15.95-12.99-18.16.9-3.32,2.37-2.09-.12-6.58h.75c2.59.61,2.74,2.66,4.49,4.5,1.32,1.38,1.35.91,2.25,1.5.85,2.1.81,3.99,3.73,5.25.25-3.71-1.63-3.88-3.73-5.25-.72-1.77-.78-1.67-1.5-3-1.21-2.22-5.52-9.12-7.16-10.49-.79-.66-.92-.59-1.83-.76-.25-1.16-.21-1.74-.75-3-.59-1.38-1.82-3.63-2.99-4.5ZM62.9,243c1.01-.97-6.58-7.09-8.23-6.74.69,1.41,7.04,7.89,8.23,6.74ZM102.2,273.76v.75c.49-.25.49-.5,0-.75ZM107.61,276.22c-.25-.27-1.97-1.06-2.03-.96l.04,2.19,2.58.79c.41-.26-.51-1.94-.59-2.02Z"/>
  <path class="cls-3" d="M248.53,237.01c-.67.6-1.24,1.81-2.22,2.64-38.8,32.6-91.87,42.31-139.24,22.86l1.88-1.5c.24-.02.26,1.32.88,1.48,49.16,13.27,98.51,8.46,137.95-26.23l.75.75Z"/>
  <path class="cls-5" d="M248.53,237.01l-.75-.75c3.33-2.93,8.57-8.56,11.61-11.99,26.08-29.44,39.7-72.43,30.29-111.37.18-.79,1.04-.5,1.52-.02.92.9,2.46,8.86,2.76,10.73,7.07,44.08-13.32,84.86-45.44,113.41Z"/>
  <path class="cls-4" d="M92.84,250.5l-5.73-1.39-1,1.38,10.48,2.26c.57,4.62-10.92-.22-11.96-1.14-1.68-1.49.14-1.94.74-3.36-1.86.91-13.78-4.02-11.98-6l1.89-1.52c-2.98-2.18-6.74-1.28-9.76-3.72-1.84-1.49-2.22-3.65-3.7-5.29-.97-1.08-9.78-7.11-8.63-8.22,3.5,1.02,7.38,2.96,10.43,4.92,8.11,5.22,19.99,13.66,27.53,19.66.89.71,2.04.85,1.7,2.41Z"/>
  <path class="cls-3" d="M282.96,138.76c-.03,11.01-1.7,27.25-6.69,37.17-.54,1.08-.7,2.13-2.29,1.83,1.09-4.43,2.7-8.83,3.54-13.32,1.29-6.94,1.09-16.96,3.06-23.18.42-1.32.5-2.78,2.38-2.49Z"/>
  <path class="cls-4" d="M40.32,202.67c.26.15,3.35,4.21,3.75,4.83,1.96,3,2.59,6.99,5.74,9.25l.37-3c3.34-1.57,7.35,8.44,6.73,9-9.38-1.25-13.56-13.06-18.7-19.88.11-.71,1.66-.47,2.11-.21Z"/>
  <path class="cls-5" d="M17.25,142.51c-.87-7.64-2.12-15.95-1.53-23.65.15-1.99.39-6.04,2.27-7.1.1,6.87-.11,13.78,0,20.66.04,2.88,1.96,8.39-.72,10.09Z"/>
  <path class="cls-3" d="M7.51,87.01c.52.61-2.04,13.92-2.64,15.75-.43,1.29-.04,1.79-1.84,1.49.67-4.33.28-10.4,1.7-14.42.44-1.26.89-3.1,2.78-2.83Z"/>
  <path class="cls-2" d="M2.27,132.76c-.54.74-2.25-3.55-2.25-4.12v-13.5l1.12-1.11,1.12,1.11v17.62Z"/>
  <path class="cls-4" d="M13.49,187.51c1.61,6,6.57,11.19,7.49,17.24l-7.84-12.01c-.45-1.38-2.7-5.79.35-5.23Z"/>
  <path class="cls-3" d="M202.12,281.26c-6.41,2.02-11.3,3.35-17.96,4.5v-1.5c6.04-1.15,12.09-2.69,17.96-4.5v1.5Z"/>
  <path class="cls-2" d="M20.23,157.51l3.75,11.99c-1.62,1.7-4.04-5.09-4.27-5.84-.43-1.4-2.41-6.83.52-6.15Z"/>
  <path class="cls-2" d="M282.21,121.51l.75,11.25c-1.49.21-1.23.14-1.69-.93-.81-1.9-.83-7.05-.56-9.21.13-1.04.44-2.22,1.49-1.11Z"/>
  <path class="cls-2" d="M124.28,252.01c.6,1.97-1.97,2.13-3.35,2.25-1.99.17-4.91.5-6.37-1.13l9.72-1.12Z"/>
  <polygon class="cls-3" points="274.73 178.51 274.36 180.75 273.24 179.62 273.24 178.51 274.73 178.51"/>
  <path class="cls-3" d="M107.61,276.22c.08.08,1,1.76.59,2.02l-2.58-.79-.04-2.19c.07-.09,1.78.7,2.03.96Z"/>
  <path class="cls-3" d="M102.2,273.76c.49.25.49.5,0,.75v-.75Z"/>
  <g>
    <path class="cls-6" d="M88.08,119.69v-57.5h-11.1v-1.6h23.9v1.6h-11.2v57.5h-1.6Z"/>
    <path class="cls-6" d="M101.98,119.69l15.1-59.1h1.3l15.1,59.1h-1.7l-4-16h-20.2l-3.9,16h-1.7ZM107.98,102.09h19.4l-9.2-35.6-.4-1.7-.4,1.7-9.4,35.6Z"/>
    <path class="cls-6" d="M143.58,119.69v-59.1h15.2c4,0,7.06.68,9.2,2.05,2.13,1.37,3.2,3.92,3.2,7.65v7.6c0,3.47-.4,6.28-1.2,8.45-.8,2.17-2.27,3.75-4.4,4.75s-5.23,1.5-9.3,1.5h-11.1v27.1h-1.6ZM145.18,90.99h11.1c3.67,0,6.45-.42,8.35-1.25,1.9-.83,3.2-2.2,3.9-4.1.7-1.9,1.05-4.45,1.05-7.65v-5.4c0-4-.75-6.73-2.25-8.2-1.5-1.47-4.38-2.2-8.65-2.2h-13.5v28.8Z"/>
    <path class="cls-6" d="M176.17,119.69l15.1-59.1h1.3l15.1,59.1h-1.7l-4-16h-20.2l-3.9,16h-1.7ZM182.17,102.09h19.4l-9.2-35.6-.4-1.7-.4,1.7-9.4,35.6Z"/>
    <path class="cls-6" d="M226.37,120.59c-2.53,0-4.77-.52-6.7-1.55-1.93-1.03-3.42-2.82-4.45-5.35-1.03-2.53-1.55-5.97-1.55-10.3v-1.2h1.6v1.2c0,4,.48,7.13,1.45,9.4.97,2.27,2.28,3.87,3.95,4.8,1.67.93,3.57,1.4,5.7,1.4,3.53,0,6.47-1.02,8.8-3.05,2.33-2.03,3.5-5.65,3.5-10.85,0-3.47-.58-6.12-1.75-7.95-1.17-1.83-2.73-3.25-4.7-4.25-1.97-1-4.12-1.93-6.45-2.8-2.4-.93-4.48-1.98-6.25-3.15-1.77-1.17-3.13-2.68-4.1-4.55-.97-1.87-1.45-4.37-1.45-7.5,0-4.47.98-8.03,2.95-10.7,1.97-2.67,5.25-4,9.85-4,4,0,7.17,1.1,9.5,3.3,2.33,2.2,3.5,5.3,3.5,9.3v4h-1.6v-3.6c0-3.6-1-6.4-3-8.4s-4.8-3-8.4-3c-4.13,0-7.03,1.25-8.7,3.75-1.67,2.5-2.5,5.62-2.5,9.35,0,3.07.52,5.47,1.55,7.2,1.03,1.73,2.4,3.07,4.1,4,1.7.93,3.52,1.8,5.45,2.6,3.2,1.27,5.8,2.5,7.8,3.7,2,1.2,3.47,2.75,4.4,4.65.93,1.9,1.4,4.58,1.4,8.05,0,3.8-.62,6.83-1.85,9.1-1.23,2.27-2.9,3.9-5,4.9s-4.45,1.5-7.05,1.5Z"/>
  </g>
  <g>
    <path class="cls-6" d="M78.63,167.2c1.52-2.6,2.92-4.78,4.19-6.53,1.27-1.76,2.49-3.16,3.68-4.22,1.18-1.05,2.36-1.81,3.54-2.26,1.18-.45,2.45-.67,3.79-.67,2.23,0,3.93.52,5.11,1.55,1.18,1.04,1.77,2.53,1.77,4.48,0,1.64-.41,3.13-1.22,4.48-.81,1.35-1.98,2.52-3.5,3.52-.49.31-1.02.61-1.6.88-.58.27-1.24.55-1.98.82-.74.27-1.58.55-2.52.83-.94.28-2.01.57-3.22.86v.12c2.4.16,4.24.69,5.52,1.61,1.28.92,1.92,2.08,1.92,3.49,0,.63-.11,1.27-.32,1.95-.22.67-.45,1.36-.72,2.07s-.5,1.41-.72,2.12c-.22.71-.32,1.41-.32,2.09,0,1.19.38,2.16,1.14,2.9.76.74,1.88,1.11,3.37,1.11,1.19,0,2.37-.27,3.54-.82,1.17-.55,2.35-1.38,3.54-2.5,1.19-1.12,2.41-2.55,3.65-4.28,1.24-1.73,2.53-3.78,3.88-6.17l1.52-2.7.79.56-1.52,2.7c-1.6,2.83-3.09,5.19-4.45,7.08-1.37,1.89-2.71,3.39-4.03,4.51-1.32,1.12-2.64,1.92-3.97,2.39-1.33.47-2.75.7-4.28.7-.9,0-1.76-.08-2.58-.25s-1.54-.44-2.17-.83c-.63-.39-1.12-.92-1.49-1.58-.37-.66-.56-1.49-.56-2.49,0-.78.1-1.58.31-2.39.21-.81.43-1.6.67-2.37.24-.77.47-1.52.67-2.24.21-.72.31-1.4.31-2.02,0-1.21-.49-2.23-1.46-3.05-.98-.82-2.49-1.26-4.54-1.32v-.15c2.05-.57,3.89-1.27,5.52-2.11,1.63-.84,3-1.76,4.12-2.75,2.17-1.97,3.25-4.29,3.25-6.94,0-3.16-1.46-4.75-4.39-4.75-1.15,0-2.28.27-3.38.81-1.1.54-2.28,1.48-3.53,2.84-1.25,1.36-2.62,3.19-4.12,5.49-1.49,2.3-3.21,5.21-5.14,8.73l-6.15,16.82h-4.34l18.25-50.16h4.37l-10.22,28.04Z"/>
    <path class="cls-6" d="M112.59,172.21c.7-2.11,1.54-4.03,2.52-5.76.98-1.73,2.04-3.27,3.18-4.61s2.34-2.51,3.6-3.49c1.26-.98,2.52-1.78,3.78-2.42,1.26-.63,2.5-1.11,3.72-1.42,1.22-.31,2.37-.47,3.44-.47s2.04.17,2.78.51c.74.34,1.34.82,1.8,1.44.46.62.79,1.36.98,2.23.19.87.29,1.83.29,2.89l2.37-6.5h4.34l-7.47,20.51c-.27.76-.55,1.54-.82,2.33-.27.79-.51,1.57-.72,2.34-.21.77-.37,1.51-.5,2.23-.13.71-.19,1.37-.19,1.98,0,1.35.36,2.42,1.07,3.22.71.8,1.82,1.2,3.33,1.2,1.31,0,2.58-.28,3.81-.83s2.45-1.41,3.65-2.55,2.41-2.58,3.62-4.31c1.21-1.73,2.46-3.75,3.75-6.08l1.49-2.7.79.56-1.52,2.7c-1.43,2.54-2.79,4.73-4.09,6.58-1.3,1.85-2.59,3.37-3.88,4.57s-2.61,2.09-3.96,2.67c-1.35.58-2.78.86-4.31.86-1.19,0-2.24-.18-3.15-.54s-1.67-.87-2.29-1.54c-.62-.66-1.08-1.46-1.39-2.4-.31-.94-.47-1.98-.47-3.13,0-.76.07-1.59.21-2.48.14-.89.34-1.81.62-2.77-2.56,4.3-5.09,7.51-7.59,9.65-2.5,2.14-5.04,3.21-7.62,3.21-1.21,0-2.24-.22-3.09-.66s-1.55-1.05-2.09-1.85-.95-1.72-1.2-2.78c-.25-1.06-.38-2.23-.38-3.5,0-1.37.14-2.81.41-4.32.27-1.51.66-3.03,1.17-4.56ZM118.83,188.41c1.05,0,2.13-.28,3.22-.83,1.09-.56,2.18-1.32,3.27-2.29s2.13-2.1,3.15-3.4c1.02-1.3,1.98-2.68,2.89-4.16.91-1.47,1.74-2.99,2.5-4.56.76-1.56,1.42-3.1,1.98-4.61.56-1.51.99-2.96,1.29-4.34.3-1.38.45-2.61.45-3.71,0-1-.12-1.83-.37-2.5-.24-.67-.57-1.22-.97-1.64-.4-.42-.86-.72-1.38-.89-.52-.18-1.05-.26-1.6-.26-1.09,0-2.31.34-3.65,1.01-1.34.67-2.7,1.7-4.09,3.08-1.39,1.38-2.75,3.12-4.09,5.21-1.34,2.1-2.56,4.57-3.68,7.4-.92,2.36-1.61,4.55-2.07,6.56-.46,2.01-.69,3.69-.69,5.04,0,1.52.31,2.72.92,3.59.62.87,1.58,1.3,2.89,1.3Z"/>
    <path class="cls-6" d="M141.03,204.75c-1.56,0-2.76-.44-3.6-1.33-.84-.89-1.26-2.18-1.26-3.88,0-1,.24-1.77.72-2.33.48-.56,1.14-.83,1.98-.83.68,0,1.22.19,1.61.56.39.37.59.88.59,1.52s-.16,1.14-.48,1.54-.74.6-1.25.6c-.21,0-.39-.03-.51-.09-.13-.06-.28-.09-.45-.09-.1,0-.17.02-.21.07-.04.05-.06.17-.06.37,0,.84.24,1.49.72,1.95.48.46,1.16.69,2.04.69.76,0,1.48-.2,2.14-.59.66-.39,1.31-1.01,1.95-1.86.63-.85,1.26-1.95,1.89-3.3.63-1.35,1.29-2.99,1.99-4.92l13.89-38.23h4.34l-13.8,38c-1.45,3.95-3.22,6.96-5.33,9.04s-4.4,3.12-6.88,3.12ZM165.09,146.92c0-.68.24-1.27.72-1.76.48-.49,1.06-.73,1.74-.73s1.26.24,1.74.72c.48.48.72,1.06.72,1.74,0,.33-.06.65-.19.95-.13.3-.3.56-.53.78-.22.22-.49.39-.79.51-.3.13-.63.19-.98.19-.68,0-1.26-.23-1.73-.69-.47-.46-.7-1.03-.7-1.71Z"/>
    <path class="cls-6" d="M184.04,189.87c-3.54,0-6.26-.92-8.17-2.77s-2.87-4.59-2.87-8.25c0-1,.07-2.05.22-3.16s.38-2.26.69-3.43c.7-2.62,1.69-5.04,2.97-7.27s2.75-4.15,4.41-5.77c1.66-1.62,3.45-2.89,5.36-3.81,1.91-.92,3.84-1.38,5.77-1.38s3.49.46,4.61,1.38c1.12.92,1.68,2.21,1.68,3.87,0,.94-.19,1.86-.56,2.75-.37.9-.91,1.75-1.61,2.55-.7.8-1.55,1.55-2.53,2.24-.99.69-2.09,1.29-3.33,1.8-1.52.64-3.2,1.13-5.04,1.45s-3.93.48-6.27.48c-.57,1.58-1.01,3.23-1.33,4.94-.32,1.71-.48,3.45-.48,5.23,0,2.71.57,4.67,1.71,5.87s2.94,1.8,5.41,1.8c2.05,0,4-.4,5.86-1.19s3.57-1.83,5.16-3.12,3.03-2.76,4.34-4.41c1.31-1.65,2.45-3.33,3.43-5.05l1.52-2.7.79.56-1.52,2.7c-1.21,2.13-2.53,4.09-3.97,5.89-1.44,1.8-3,3.34-4.69,4.64-1.69,1.3-3.5,2.31-5.42,3.05s-3.97,1.1-6.14,1.1ZM193.24,155.21c-1.23,0-2.49.36-3.76,1.08-1.28.72-2.51,1.72-3.71,3-1.19,1.28-2.3,2.79-3.34,4.53-1.04,1.74-1.93,3.63-2.7,5.68,2.15-.04,3.98-.23,5.51-.57,1.52-.34,2.85-.78,3.98-1.3.9-.41,1.77-.94,2.62-1.6.85-.65,1.6-1.4,2.26-2.24.65-.84,1.18-1.75,1.58-2.72.4-.98.6-1.99.6-3.05,0-.53-.08-.97-.23-1.32s-.37-.64-.64-.86c-.27-.22-.6-.38-.97-.48-.37-.1-.77-.15-1.2-.15Z"/>
    <path class="cls-6" d="M211.29,154.6h4.34l-4.6,12.6c1.31-2.23,2.57-4.16,3.78-5.82,1.21-1.65,2.42-3.02,3.62-4.1s2.42-1.89,3.65-2.43c1.23-.54,2.53-.81,3.9-.81,1.23,0,2.3.2,3.22.6.92.4,1.69.95,2.31,1.64.62.69,1.09,1.5,1.41,2.42.31.92.47,1.89.47,2.9,0,1.11-.16,2.33-.48,3.63-.32,1.31-.73,2.66-1.22,4.04-.49,1.39-1.02,2.79-1.58,4.2-.57,1.42-1.09,2.78-1.58,4.09-.49,1.31-.89,2.53-1.22,3.68s-.48,2.14-.48,3c0,1.19.37,2.18,1.1,2.97s1.88,1.19,3.44,1.19c1.25,0,2.48-.29,3.68-.86,1.2-.58,2.4-1.44,3.6-2.58s2.41-2.58,3.63-4.31,2.48-3.74,3.76-6.02l1.52-2.7.79.56-1.52,2.7c-1.41,2.46-2.75,4.61-4.04,6.46s-2.58,3.37-3.87,4.58c-1.29,1.21-2.6,2.12-3.94,2.72-1.34.61-2.76.91-4.26.91-1.23,0-2.31-.19-3.24-.56-.93-.37-1.7-.88-2.33-1.52s-1.09-1.39-1.41-2.24-.47-1.75-.47-2.71c0-1.01.16-2.15.48-3.41s.73-2.58,1.22-3.96,1.02-2.77,1.58-4.19c.57-1.42,1.09-2.79,1.58-4.13.49-1.34.89-2.61,1.22-3.81s.48-2.27.48-3.21c0-.66-.09-1.28-.26-1.85-.18-.57-.45-1.05-.83-1.46s-.86-.73-1.44-.97-1.26-.35-2.07-.35c-1.23,0-2.43.3-3.6.89-1.17.6-2.35,1.49-3.53,2.68-1.18,1.19-2.38,2.68-3.6,4.47s-2.5,3.87-3.85,6.25l-1.52,2.7-6.15,16.82h-4.34l12.66-34.72Z"/>
  </g>
</svg>